<?xml version="1.0" ?><!DOCTYPE svg  PUBLIC '-//W3C//DTD SVG 1.1//EN'  'http://www.w3.org/Graphics/SVG/1.1/DTD/svg11.dtd'><svg height="512px" style="enable-background:new 0 0 512 512;" version="1.1" viewBox="0 0 512 512" width="512px" xml:space="preserve" xmlns="http://www.w3.org/2000/svg" xmlns:xlink="http://www.w3.org/1999/xlink"><g id="myspace__x2C_"><g><path d="M492.871,374.968c0,65.451-53.089,118.482-118.565,118.482H137.168    c-65.497,0-118.566-53.031-118.566-118.482V138.009c0-65.432,53.069-118.483,118.566-118.483h237.137    c65.477,0,118.565,53.051,118.565,118.483V374.968z" style="fill:#00309C;"/><path d="M304.911,213.757c0,25.494,21.13,46.147,47.183,46.147c26.033,0,47.163-20.653,47.163-46.147    c0-25.475-21.13-46.127-47.163-46.127C326.041,167.63,304.911,188.283,304.911,213.757z" style="fill:#FFFFFF;"/><path d="M245.839,268.441c23.448,0,42.476-18.603,42.476-41.513c0-22.948-19.027-41.519-42.476-41.519    c-23.447,0-42.435,18.571-42.435,41.519C203.404,249.838,222.392,268.441,245.839,268.441z" style="fill:#FFFFFF;"/><path d="M149.5,276.117c21.092,0,38.214-16.715,38.214-37.348c0-20.634-17.122-37.354-38.214-37.354    c-21.112,0-38.21,16.72-38.21,37.354C111.29,259.402,128.388,276.117,149.5,276.117z" style="fill:#FFFFFF;"/><path d="M187.656,345.347c2.123,0,3.841-1.677,3.841-3.721v-14.541c0-21.541-17.778-42.425-41.997-42.425    s-41.974,20.884-41.974,42.425v14.541c0,2.044,1.699,3.721,3.802,3.721h1.37h73.622H187.656z" style="fill:#FFFFFF;"/><path d="M288.256,345.347c2.336,0,4.246-1.87,4.246-4.165v-16.121c0-23.971-19.724-47.15-46.663-47.15    c-26.901,0-46.643,23.18-46.643,47.15v16.121c0,2.295,1.891,4.165,4.247,4.165h1.504h81.823H288.256z" style="fill:#FFFFFF;"/><path d="M352.094,270.408c-29.911,0-51.834,25.765-51.834,52.415v17.915c0,2.526,2.103,4.608,4.708,4.608    h1.66h90.912h1.66c2.605,0,4.747-2.082,4.747-4.608v-17.915C403.947,296.173,382.005,270.408,352.094,270.408z" style="fill:#FFFFFF;"/><path d="M304.911,213.757c0,25.494,21.13,46.147,47.183,46.147c26.033,0,47.163-20.653,47.163-46.147    c0-25.475-21.13-46.127-47.163-46.127C326.041,167.63,304.911,188.283,304.911,213.757z" style="fill:#FFFFFF;"/><path d="M245.839,268.441c23.448,0,42.476-18.603,42.476-41.513c0-22.948-19.027-41.519-42.476-41.519    c-23.447,0-42.435,18.571-42.435,41.519C203.404,249.838,222.392,268.441,245.839,268.441z" style="fill:#FFFFFF;"/><path d="M149.5,276.117c21.092,0,38.214-16.715,38.214-37.348c0-20.634-17.122-37.354-38.214-37.354    c-21.112,0-38.21,16.72-38.21,37.354C111.29,259.402,128.388,276.117,149.5,276.117z" style="fill:#FFFFFF;"/><path d="M187.656,345.347c2.123,0,3.841-1.677,3.841-3.721v-14.541c0-21.541-17.778-42.425-41.997-42.425    s-41.974,20.884-41.974,42.425v14.541c0,2.044,1.699,3.721,3.802,3.721h1.37h73.622H187.656z" style="fill:#FFFFFF;"/><path d="M288.256,345.347c2.336,0,4.246-1.87,4.246-4.165v-16.121c0-23.971-19.724-47.15-46.663-47.15    c-26.901,0-46.643,23.18-46.643,47.15v16.121c0,2.295,1.891,4.165,4.247,4.165h1.504h81.823H288.256z" style="fill:#FFFFFF;"/><path d="M352.094,270.408c-29.911,0-51.834,25.765-51.834,52.415v17.915c0,2.526,2.103,4.608,4.708,4.608    h1.66h90.912h1.66c2.605,0,4.747-2.082,4.747-4.608v-17.915C403.947,296.173,382.005,270.408,352.094,270.408z" style="fill:#FFFFFF;"/><path d="M352.094,167.63c26.033,0,47.163,20.653,47.163,46.127c0,25.494-21.13,46.147-47.163,46.147    c-26.053,0-47.183-20.653-47.183-46.147C304.911,188.283,326.041,167.63,352.094,167.63 M352.094,157.753    c-31.463,0-57.06,25.124-57.06,56.004c0,30.892,25.597,56.024,57.06,56.024c31.452,0,57.04-25.132,57.04-56.024    C409.134,182.876,383.546,157.753,352.094,157.753L352.094,157.753z" style="fill:#00184E;"/><path d="M245.839,185.41c23.448,0,42.476,18.571,42.476,41.519c0,22.91-19.027,41.513-42.476,41.513    c-23.447,0-42.435-18.603-42.435-41.513C203.404,203.98,222.392,185.41,245.839,185.41 M245.839,175.533    c-28.845,0-52.312,23.056-52.312,51.396c0,28.336,23.467,51.39,52.312,51.39c28.867,0,52.353-23.053,52.353-51.39    C298.191,198.589,274.706,175.533,245.839,175.533L245.839,175.533z" style="fill:#00184E;"/><path d="M149.5,201.416c21.092,0,38.214,16.72,38.214,37.354c0,20.633-17.122,37.348-38.214,37.348    c-21.112,0-38.21-16.715-38.21-37.348C111.29,218.135,128.388,201.416,149.5,201.416 M149.5,191.539    c-26.516,0-48.087,21.188-48.087,47.23c0,26.04,21.572,47.225,48.087,47.225c26.518,0,48.091-21.186,48.091-47.225    C197.591,212.726,176.018,191.539,149.5,191.539L149.5,191.539z" style="fill:#00184E;"/><path d="M149.5,284.66c24.219,0,41.997,20.884,41.997,42.425v14.541c0,2.044-1.718,3.721-3.841,3.721    h-1.336h-73.622h-1.37c-2.103,0-3.802-1.677-3.802-3.721v-14.541C107.526,305.544,125.281,284.66,149.5,284.66 M149.5,274.783    c-14.146,0-27.377,5.765-37.253,16.233c-9.277,9.833-14.598,22.979-14.598,36.068v14.541c0,7.498,6.136,13.598,13.679,13.598h1.37    h73.622h1.336c7.564,0,13.718-6.1,13.718-13.598v-14.541c0-13.089-5.326-26.236-14.612-36.071    C176.88,280.547,163.646,274.783,149.5,274.783L149.5,274.783z" style="fill:#00184E;"/><path d="M245.839,277.91c26.939,0,46.663,23.18,46.663,47.15v16.121c0,2.295-1.91,4.165-4.246,4.165h-1.485    h-81.823h-1.504c-2.355,0-4.247-1.87-4.247-4.165v-16.121C199.196,301.09,218.938,277.91,245.839,277.91 M245.839,268.033    c-15.413,0-29.828,6.28-40.592,17.684c-10.123,10.724-15.928,25.064-15.928,39.344v16.121c0,7.743,6.336,14.042,14.124,14.042    h1.504h81.823h1.485c7.787,0,14.123-6.299,14.123-14.042v-16.121c0-14.283-5.804-28.623-15.924-39.344    C275.691,274.313,261.267,268.033,245.839,268.033L245.839,268.033z" style="fill:#00184E;"/><path d="M352.094,270.408c29.911,0,51.854,25.765,51.854,52.415v17.915c0,2.526-2.142,4.608-4.747,4.608    h-1.66h-90.912h-1.66c-2.605,0-4.708-2.082-4.708-4.608v-17.915C300.26,296.173,322.183,270.408,352.094,270.408 M352.094,260.531    c-16.829,0-32.568,6.858-44.318,19.313c-11.053,11.717-17.393,27.382-17.393,42.979v17.915c0,7.987,6.543,14.485,14.585,14.485    h1.66h90.912h1.66c8.063,0,14.624-6.498,14.624-14.485v-17.915c0-15.598-6.344-31.264-17.404-42.981    C384.665,267.39,368.923,260.531,352.094,260.531L352.094,260.531z" style="fill:#00184E;"/><path d="M364.039,478.061H147.415c-62.448,0-113.253-50.818-113.253-113.283V148.179    c0-62.454,50.805-113.263,113.253-113.263h216.624c62.459,0,113.272,50.81,113.272,113.263v216.599    C477.312,427.242,426.498,478.061,364.039,478.061z M147.415,44.818c-56.988,0-103.351,46.367-103.351,103.36v216.599    c0,57.004,46.363,103.381,103.351,103.381h216.624c56.998,0,103.37-46.377,103.37-103.381V148.179    c0-56.993-46.372-103.36-103.37-103.36H147.415z" style="fill:#00184E;"/></g></g><g id="Layer_1"/></svg>