<?xml version="1.0" ?><!DOCTYPE svg  PUBLIC '-//W3C//DTD SVG 1.1//EN'  'http://www.w3.org/Graphics/SVG/1.1/DTD/svg11.dtd'><svg height="512px" style="enable-background:new 0 0 512 512;" version="1.1" viewBox="0 0 512 512" width="512px" xml:space="preserve" xmlns="http://www.w3.org/2000/svg" xmlns:xlink="http://www.w3.org/1999/xlink"><g id="IMDb__x2C_"><g><path d="M492.871,374.968c0,65.451-53.089,118.482-118.585,118.482H137.149    c-65.477,0-118.546-53.031-118.546-118.482V138.009c0-65.432,53.069-118.483,118.546-118.483h237.137    c65.496,0,118.585,53.051,118.585,118.483V374.968z" style="fill:#F4AD2C;"/><rect height="118.477" style="fill:#FFFFFF;" width="28.792" x="107.528" y="197.25"/><polygon points="176.672,249.24 188.893,315.727 206.686,315.727 218.573,249.24 218.573,315.727     243.159,315.727 243.159,197.25 204.119,197.25 197.442,253.136 187.793,197.25 150.736,197.25 150.736,315.727 176.672,315.727       " style="fill:#FFFFFF;"/><path d="M290.573,197.25h-32.208v118.477h32.382c18.409,0,24.585-2.044,29.698-6.151    c5.133-4.107,7.701-9.854,7.701-17.24v-71.693c0-7.945-2.741-13.827-8.222-17.645C314.426,199.178,309.774,197.25,290.573,197.25z     M297.23,290.869c0,5.612-6.213,4.859-11.135,4.859v-79.58c4.922,0,11.135-0.521,11.135,5.245V290.869z" style="fill:#FFFFFF;"/><path d="M386.117,216.148c-8.028-0.367-16.307,4.878-19.278,8.234V197.25H337.37v118.477h23.794    c0,0,1.814-7.058,3.821-6.171c2.027,0.868,12.234,5.226,19.279,5.226c7.042,0,9.938-0.462,13.315-1.947    c4.207-2.815,6.329-6.634,6.329-11.475v-68.896C404.642,222.512,394.145,216.534,386.117,216.148z M374.924,295.267    c0,2.912-1.331,4.937-3.995,4.937c-2.739,0-4.109-2.024-4.109-4.937l0.02-59.854c0-2.796,1.37-4.204,4.09-4.204    c2.684,0,4.034,1.446,4.034,4.377L374.924,295.267z" style="fill:#FFFFFF;"/><rect height="118.477" style="fill:#FFFFFF;" width="28.792" x="107.528" y="197.25"/><polygon points="176.672,249.24 188.893,315.727 206.686,315.727 218.573,249.24 218.573,315.727     243.159,315.727 243.159,197.25 204.119,197.25 197.442,253.136 187.793,197.25 150.736,197.25 150.736,315.727 176.672,315.727       " style="fill:#FFFFFF;"/><path d="M290.573,197.25h-32.208v118.477h32.382c18.409,0,24.585-2.044,29.698-6.151    c5.133-4.107,7.701-9.854,7.701-17.24v-71.693c0-7.945-2.741-13.827-8.222-17.645C314.426,199.178,309.774,197.25,290.573,197.25z     M297.23,290.869c0,5.612-6.213,4.859-11.135,4.859v-79.58c4.922,0,11.135-0.521,11.135,5.245V290.869z" style="fill:#FFFFFF;"/><path d="M386.117,216.148c-8.028-0.367-16.307,4.878-19.278,8.234V197.25H337.37v118.477h23.794    c0,0,1.814-7.058,3.821-6.171c2.027,0.868,12.234,5.226,19.279,5.226c7.042,0,9.938-0.462,13.315-1.947    c4.207-2.815,6.329-6.634,6.329-11.475v-68.896C404.642,222.512,394.145,216.534,386.117,216.148z M374.924,295.267    c0,2.912-1.331,4.937-3.995,4.937c-2.739,0-4.109-2.024-4.109-4.937l0.02-59.854c0-2.796,1.37-4.204,4.09-4.204    c2.684,0,4.034,1.446,4.034,4.377L374.924,295.267z" style="fill:#FFFFFF;"/><path d="M136.32,197.25v118.477h-28.792V197.25H136.32 M136.32,187.373h-28.792    c-5.455,0-9.877,4.422-9.877,9.877v118.477c0,5.455,4.422,9.877,9.877,9.877h28.792c5.455,0,9.877-4.422,9.877-9.877V197.25    C146.197,191.795,141.775,187.373,136.32,187.373L136.32,187.373z M243.159,197.25v118.477h-24.586V249.24l-11.887,66.486h-17.793    l-12.221-66.486v66.486h-25.937V197.25h37.057l9.649,55.886l6.677-55.886H243.159 M243.159,187.373h-39.04    c-3.366,0-6.375,1.693-8.163,4.314c-1.793-2.629-4.808-4.314-8.163-4.314h-37.057c-5.455,0-9.877,4.422-9.877,9.877v118.477    c0,5.455,4.422,9.877,9.877,9.877h25.937c2.307,0,4.43-0.791,6.111-2.116c1.692,1.333,3.823,2.116,6.11,2.116h17.793    c2.213,0,4.279-0.733,5.943-1.988c1.654,1.248,3.712,1.988,5.944,1.988h24.586c5.455,0,9.877-4.422,9.877-9.877V197.25    C253.036,191.795,248.614,187.373,243.159,187.373L243.159,187.373z M290.573,197.25c19.201,0,23.853,1.928,29.352,5.747    c5.48,3.818,8.222,9.7,8.222,17.645v71.693c0,7.386-2.568,13.133-7.701,17.24c-5.113,4.107-11.289,6.151-29.698,6.151h-32.382    V197.25H290.573 M289.321,295.762c4.047,0,7.909-0.468,7.909-4.893v-69.476c0-4.884-4.457-5.257-8.813-5.257    c-0.786,0-1.569,0.012-2.322,0.012v79.58C287.137,295.729,288.235,295.762,289.321,295.762 M290.573,187.373h-32.208    c-5.455,0-9.877,4.422-9.877,9.877v118.477c0,5.455,4.422,9.877,9.877,9.877h32.382c19.077,0,28.132-2.102,35.884-8.328    c7.448-5.96,11.393-14.588,11.393-24.94v-71.693c0-14.111-6.771-21.791-12.452-25.749    C317.931,189.587,311.384,187.373,290.573,187.373L290.573,187.373z M366.839,197.25v27.133    c2.872-3.244,10.702-8.252,18.473-8.252c0.269,0,0.538,0.006,0.806,0.018c8.027,0.385,18.524,6.363,17.792,16.314v68.896    c0,4.841-2.122,8.659-6.329,11.475c-3.377,1.485-6.273,1.947-13.315,1.947c-7.045,0-17.252-4.357-19.279-5.226    c-0.119-0.053-0.236-0.077-0.354-0.077c-1.861,0-3.468,6.248-3.468,6.248H337.37V197.25H366.839 M370.929,300.203    c2.664,0,3.995-2.024,3.995-4.937l0.039-59.68c0-2.931-1.351-4.377-4.034-4.377c-2.72,0-4.09,1.408-4.09,4.204l-0.02,59.854    C366.819,298.179,368.189,300.203,370.929,300.203 M366.839,187.373H337.37c-5.455,0-9.877,4.422-9.877,9.877v118.477    c0,5.455,4.422,9.877,9.877,9.877h23.794c3.172,0,6.06-1.511,7.885-3.927c4.989,1.664,10.445,2.981,15.216,2.981    c7.272,0,11.943-0.431,17.292-2.783c0.529-0.232,1.036-0.511,1.517-0.832c6.908-4.624,10.713-11.614,10.713-19.684v-68.582    c0.343-6.086-1.676-11.785-5.853-16.502c-5.115-5.777-13.294-9.606-21.343-9.993c-0.441-0.02-0.86-0.029-1.279-0.029    c-2.973,0-5.867,0.466-8.596,1.239V197.25C376.716,191.795,372.294,187.373,366.839,187.373L366.839,187.373z M364.039,478.061    H147.415c-62.448,0-113.253-50.818-113.253-113.283V148.179c0-62.454,50.805-113.263,113.253-113.263h216.624    c62.459,0,113.272,50.81,113.272,113.263v216.599C477.312,427.242,426.498,478.061,364.039,478.061z M147.415,44.818    c-56.988,0-103.351,46.367-103.351,103.36v216.599c0,57.004,46.363,103.381,103.351,103.381h216.624    c56.998,0,103.37-46.377,103.37-103.381V148.179c0-56.993-46.372-103.36-103.37-103.36H147.415z" style="fill:#7A5716;"/></g></g><g id="Layer_1"/></svg>