<?xml version="1.0" ?><!DOCTYPE svg  PUBLIC '-//W3C//DTD SVG 1.1//EN'  'http://www.w3.org/Graphics/SVG/1.1/DTD/svg11.dtd'><svg height="512px" style="enable-background:new 0 0 512 512;" version="1.1" viewBox="0 0 512 512" width="512px" xml:space="preserve" xmlns="http://www.w3.org/2000/svg" xmlns:xlink="http://www.w3.org/1999/xlink"><g id="soundcloud__x2C_"><g><path d="M492.871,374.948c0,65.451-53.089,118.502-118.565,118.502H137.168    c-65.497,0-118.566-53.051-118.566-118.502V138.009c0-65.451,53.069-118.483,118.566-118.483h237.137    c65.477,0,118.565,53.032,118.565,118.483V374.948z" style="fill:#FF5E00;"/><path d="M367.492,247.312c-4.996,0-9.782,1.081-14.106,3.028c-2.913-35.29-30.451-62.963-64.049-62.963    c-8.241,0-16.268,1.755-23.332,4.686c-2.759,1.138-3.473,2.314-3.512,4.609v124.243c0.039,2.409,1.756,4.415,3.937,4.647    c0.098,0.018,100.408,0.037,101.063,0.037c20.129,0,36.455-17.509,36.455-39.128C403.947,264.841,387.621,247.312,367.492,247.312    z" style="fill:#FFFFFF;"/><path d="M173.853,288.999l-2.624-52.583c-0.058-1.35-1.042-2.392-2.238-2.392    c-1.197,0-2.181,1.042-2.239,2.392l-2.316,52.583l2.316,34.017c0.059,1.331,1.042,2.392,2.239,2.392    c1.196,0,2.181-1.061,2.238-2.411v0.02L173.853,288.999z" style="fill:#FFFFFF;"/><path d="M161.85,288.999l-2.797-32.334c-0.078-1.215-0.927-2.121-1.988-2.121    c-1.062,0-1.93,0.945-1.988,2.141l-2.471,32.314l2.471,33.997c0.058,1.196,0.926,2.084,1.988,2.084    c1.061,0,1.91-0.888,1.988-2.084l0,0L161.85,288.999z" style="fill:#FFFFFF;"/><path d="M185.972,289.019l-2.45-64.616c-0.077-1.504-1.177-2.661-2.509-2.661    c-1.331,0-2.431,1.157-2.488,2.661l-2.162,64.616l2.162,33.785c0.058,1.466,1.157,2.643,2.488,2.643    c1.332,0,2.432-1.177,2.509-2.661v0.019L185.972,289.019z" style="fill:#FFFFFF;"/><path d="M121.846,318.233c0.618,0,1.139-0.521,1.216-1.291l3.319-27.963l-3.299-28.594    c-0.096-0.732-0.618-1.272-1.235-1.272c-0.636,0-1.158,0.54-1.234,1.272l-2.934,28.594l2.934,27.963    C120.688,317.693,121.209,318.233,121.846,318.233z" style="fill:#FFFFFF;"/><path d="M133.482,323.248c0.772,0,1.39-0.675,1.486-1.563l3.146-32.706l-3.146-33.916    c-0.096-0.887-0.714-1.562-1.486-1.562c-0.771,0-1.409,0.675-1.486,1.562c0,0.02-2.759,33.916-2.759,33.916l2.759,32.706    C132.074,322.573,132.711,323.248,133.482,323.248z" style="fill:#FFFFFF;"/><path d="M208.363,216.669c-0.059-1.813-1.351-3.22-2.991-3.22c-1.641,0-2.953,1.408-3.011,3.22    l-1.872,72.349l1.872,33.227c0.058,1.793,1.37,3.201,3.011,3.201c1.641,0,2.933-1.408,2.991-3.201l0,0l2.122-33.227    L208.363,216.669z" style="fill:#FFFFFF;"/><path d="M145.235,324.54c0.907,0,1.64-0.771,1.736-1.832l2.953-33.709l-2.953-34.841    c-0.097-1.061-0.829-1.851-1.736-1.851c-0.927,0-1.679,0.791-1.737,1.851l-2.624,34.841l2.624,33.709    C143.557,323.769,144.309,324.54,145.235,324.54z" style="fill:#FFFFFF;"/><path d="M198.173,289.019l-2.276-70.016c-0.058-1.64-1.274-2.932-2.741-2.932    c-1.505,0-2.702,1.292-2.759,2.932c0,0.019-2.027,70.016-2.027,70.016l2.027,33.438c0.058,1.64,1.254,2.911,2.759,2.911    c1.466,0,2.683-1.271,2.741-2.931v0.039L198.173,289.019z" style="fill:#FFFFFF;"/><path d="M222.856,289.019l-1.93-70.536c-0.038-1.929-1.467-3.452-3.261-3.452    c-1.775,0-3.204,1.522-3.242,3.452l-1.718,70.536l1.718,32.918c0.038,1.929,1.466,3.49,3.242,3.49c1.794,0,3.223-1.562,3.261-3.49    l0,0L222.856,289.019z" style="fill:#FFFFFF;"/><path d="M110.885,270.062c-0.618,0-1.1,0.521-1.197,1.254l-2.162,17.664l2.162,17.395    c0.097,0.733,0.579,1.234,1.197,1.234c0.598,0,1.081-0.501,1.177-1.234l2.566-17.395l-2.566-17.664    C111.966,270.583,111.483,270.062,110.885,270.062z" style="fill:#FFFFFF;"/><path d="M247.943,289.056l-1.583-80.891c-0.038-2.198-1.736-3.992-3.763-3.992    c-2.064,0-3.743,1.793-3.763,3.992l-1.428,80.854c0,0.076,1.428,32.513,1.428,32.513c0.02,2.179,1.698,4.012,3.763,4.012    c2.027,0,3.725-1.833,3.763-4.05v0.058L247.943,289.056z" style="fill:#FFFFFF;"/><path d="M255.045,196.556c-2.181,0-3.995,1.928-4.034,4.3l-1.64,88.199l1.64,32.013    c0.039,2.333,1.853,4.262,4.034,4.262c2.161,0,3.976-1.929,4.013-4.281v0.02l1.795-32.013l-1.795-88.199    C259.021,198.484,257.206,196.556,255.045,196.556z" style="fill:#FFFFFF;"/><path d="M168.991,234.025c1.196,0,2.181,1.042,2.238,2.392l2.624,52.583l-2.624,34.017v-0.02    c-0.058,1.351-1.042,2.411-2.238,2.411c-1.197,0-2.181-1.061-2.239-2.392l-2.316-34.017l2.316-52.583    C166.811,235.067,167.794,234.025,168.991,234.025 M168.991,224.148c-6.5,0-11.819,5.201-12.107,11.84l-2.316,52.577    c-0.016,0.368-0.012,0.737,0.014,1.105l2.311,33.939c0.369,6.56,5.654,11.675,12.099,11.675c6.39,0,11.635-5.03,12.086-11.517    l2.623-34.009c0.032-0.417,0.038-0.835,0.017-1.252l-2.623-52.564C180.786,229.324,175.479,224.148,168.991,224.148    L168.991,224.148z M157.065,254.544c1.061,0,1.91,0.906,1.988,2.121l2.797,32.334l-2.797,33.997    c-0.078,1.196-0.927,2.084-1.988,2.084c-1.062,0-1.93-0.888-1.988-2.084l-2.471-33.997l2.471-32.314    C155.135,255.489,156.003,254.544,157.065,254.544 M157.065,244.667c-6.273,0-11.44,4.971-11.843,11.353l-2.464,32.226    c-0.038,0.489-0.039,0.979-0.003,1.469l2.465,33.921c0.39,6.361,5.562,11.321,11.844,11.321c6.189,0,11.367-4.911,11.836-11.202    l2.793-33.946c0.045-0.553,0.044-1.108-0.003-1.661l-2.792-32.266C168.418,249.581,163.249,244.667,157.065,244.667    L157.065,244.667z M181.013,221.741c1.332,0,2.432,1.157,2.509,2.661l2.45,64.616l-2.45,33.785v-0.019    c-0.077,1.484-1.177,2.661-2.509,2.661c-1.331,0-2.431-1.177-2.488-2.643l-2.162-33.785l2.162-64.616    C178.582,222.898,179.682,221.741,181.013,221.741 M181.013,211.864c-6.668,0-12.097,5.341-12.358,12.16l-2.164,64.664    c-0.011,0.32-0.006,0.641,0.015,0.961l2.157,33.703c0.346,6.726,5.741,11.971,12.351,11.971c6.472,0,11.831-5.098,12.35-11.671    c0.004-0.045,0.007-0.09,0.011-0.134l2.45-33.785c0.026-0.362,0.033-0.727,0.019-1.089l-2.45-64.616    c-0.002-0.044-0.004-0.088-0.006-0.132C193.04,217.149,187.605,211.864,181.013,211.864L181.013,211.864z M121.846,259.113    c0.618,0,1.139,0.54,1.235,1.272l3.299,28.594l-3.319,27.963c-0.077,0.771-0.598,1.291-1.216,1.291    c-0.636,0-1.158-0.54-1.234-1.291l-2.934-27.963l2.934-28.594C120.688,259.653,121.209,259.113,121.846,259.113 M121.846,249.236    c-5.7,0-10.454,4.351-11.058,10.121l-2.936,28.614c-0.07,0.678-0.069,1.36,0.002,2.038l2.934,27.963    c0.589,5.768,5.344,10.138,11.058,10.138c5.675,0,10.395-4.314,11.031-10.06l3.312-27.907c0.091-0.763,0.092-1.533,0.004-2.296    l-3.299-28.594c-0.006-0.052-0.012-0.104-0.019-0.154C132.135,253.477,127.395,249.236,121.846,249.236L121.846,249.236z     M133.482,253.502c0.772,0,1.39,0.675,1.486,1.562l3.146,33.916l-3.146,32.706c-0.096,0.888-0.714,1.563-1.486,1.563    c-0.771,0-1.409-0.675-1.486-1.563l-2.759-32.706c0,0,2.759-33.896,2.759-33.916C132.074,254.177,132.711,253.502,133.482,253.502     M133.482,243.625c-5.932,0-10.801,4.549-11.326,10.582c-0.003,0.032-0.005,0.064-0.008,0.097    c-0.059,0.734-1.826,22.444-2.756,33.874c-0.044,0.543-0.043,1.089,0.002,1.632l2.759,32.706    c0.527,6.06,5.396,10.609,11.328,10.609c5.804,0,10.665-4.46,11.305-10.375c0.004-0.04,0.008-0.079,0.012-0.119l3.146-32.706    c0.06-0.617,0.061-1.239,0.003-1.857l-3.146-33.916c-0.005-0.051-0.01-0.102-0.016-0.153    C144.146,248.085,139.286,243.625,133.482,243.625L133.482,243.625z M205.372,213.449c1.641,0,2.933,1.408,2.991,3.22    l2.122,72.349l-2.122,33.227c-0.059,1.793-1.351,3.201-2.991,3.201c-1.641,0-2.953-1.408-3.011-3.201l-1.872-33.227l1.872-72.349    C202.419,214.857,203.731,213.449,205.372,213.449 M205.372,203.572c-6.994,0-12.653,5.614-12.883,12.781    c0,0.021-0.001,0.041-0.001,0.061l-1.872,72.349c-0.007,0.271-0.003,0.541,0.012,0.812l1.867,33.145    c0.307,7.08,5.935,12.604,12.877,12.604c6.915,0,12.524-5.499,12.855-12.557l2.115-33.118c0.02-0.307,0.025-0.613,0.016-0.92    l-2.122-72.349C218.003,209.185,212.354,203.572,205.372,203.572L205.372,203.572z M145.235,252.307    c0.907,0,1.64,0.791,1.736,1.851l2.953,34.841l-2.953,33.709c-0.097,1.061-0.829,1.832-1.736,1.832    c-0.927,0-1.679-0.771-1.737-1.832l-2.624-33.709l2.624-34.841C143.557,253.097,144.309,252.307,145.235,252.307 M145.235,242.43    c-6.113,0-11.179,4.841-11.591,11.046l-2.62,34.781c-0.038,0.503-0.037,1.007,0.002,1.509l2.619,33.642    c0.42,6.186,5.482,11.01,11.59,11.01c6.036,0,11.011-4.648,11.573-10.813l2.956-33.743c0.049-0.564,0.05-1.132,0.002-1.696    l-2.953-34.841c-0.002-0.021-0.004-0.042-0.005-0.063C156.245,247.086,151.27,242.43,145.235,242.43L145.235,242.43z     M193.156,216.071c1.466,0,2.683,1.292,2.741,2.932l2.276,70.016l-2.276,33.458v-0.039c-0.058,1.659-1.274,2.931-2.741,2.931    c-1.505,0-2.702-1.271-2.759-2.911l-2.027-33.438c0,0,2.027-69.997,2.027-70.016C190.455,217.363,191.651,216.071,193.156,216.071     M193.156,206.194c-6.837,0-12.385,5.474-12.63,12.462c0,0.026-0.001,0.052-0.002,0.078c-0.025,0.886-2.026,69.998-2.026,69.998    c-0.008,0.295-0.004,0.59,0.014,0.884l2.021,33.353c0.326,6.897,5.84,12.276,12.624,12.276c6.672,0,12.114-5.228,12.587-11.987    c0.003-0.036,0.005-0.074,0.008-0.11l2.276-33.458c0.022-0.33,0.028-0.661,0.018-0.992l-2.276-70.015    C205.52,211.667,199.98,206.194,193.156,206.194L193.156,206.194z M217.665,215.031c1.794,0,3.223,1.522,3.261,3.452l1.93,70.536    l-1.93,32.918c-0.038,1.929-1.467,3.49-3.261,3.49c-1.775,0-3.204-1.562-3.242-3.49l-1.718-32.918l1.718-70.536    C214.461,216.553,215.889,215.031,217.665,215.031 M217.665,205.154c-7.21,0-12.971,5.769-13.117,13.134l-1.717,70.491    c-0.006,0.252-0.003,0.504,0.01,0.755l1.712,32.808c0.25,7.167,6.09,12.963,13.111,12.963c7.141,0,12.863-5.658,13.129-12.928    l1.922-32.779c0.017-0.282,0.021-0.565,0.014-0.849l-1.93-70.505C230.632,210.899,224.871,205.154,217.665,205.154    L217.665,205.154z M110.885,270.062c0.598,0,1.081,0.521,1.177,1.254l2.566,17.664l-2.566,17.395    c-0.096,0.733-0.579,1.234-1.177,1.234c-0.618,0-1.1-0.501-1.197-1.234l-2.162-17.395l2.162-17.664    C109.785,270.583,110.268,270.062,110.885,270.062 M110.885,260.185c-5.615,0-10.236,4.138-10.989,9.839    c-0.004,0.03-0.008,0.062-0.012,0.092l-2.162,17.664c-0.099,0.804-0.098,1.615,0.002,2.419l2.162,17.395    c0.003,0.023,0.006,0.048,0.009,0.072c0.75,5.69,5.372,9.82,10.989,9.82c5.574,0,10.164-4.08,10.955-9.718l2.559-17.347    c0.14-0.948,0.141-1.912,0.003-2.861l-2.561-17.623C121.056,264.28,116.462,260.185,110.885,260.185L110.885,260.185z     M242.597,204.173c2.027,0,3.725,1.793,3.763,3.992l1.583,80.891l-1.583,32.495v-0.058c-0.038,2.217-1.736,4.05-3.763,4.05    c-2.064,0-3.743-1.833-3.763-4.012c0,0-1.428-32.437-1.428-32.513l1.428-80.854C238.854,205.967,240.533,204.173,242.597,204.173     M242.597,194.296c-7.435,0-13.542,6.152-13.639,13.725l-1.428,80.822c-0.001,0.059-0.001,0.116-0.001,0.175    c0,0.293,0,0.295,1.432,32.823c0.184,7.508,6.255,13.578,13.636,13.578c7.233,0,13.248-5.912,13.623-13.276    c0.002-0.037,0.004-0.075,0.006-0.112l1.583-32.495c0.011-0.225,0.014-0.449,0.01-0.674l-1.583-80.891    C256.105,200.441,249.987,194.296,242.597,194.296L242.597,194.296z M255.045,196.556c2.161,0,3.976,1.928,4.013,4.3l1.795,88.199    l-1.795,32.013v-0.02c-0.037,2.353-1.852,4.281-4.013,4.281c-2.181,0-3.995-1.929-4.034-4.262l-1.64-32.013l1.64-88.199    C251.05,198.484,252.864,196.556,255.045,196.556 M255.045,186.679c-7.544,0-13.784,6.288-13.909,14.017l-1.64,88.176    c-0.004,0.229,0,0.46,0.011,0.688l1.634,31.891c0.241,7.604,6.434,13.756,13.904,13.756c7.437,0,13.603-6.116,13.881-13.697    l1.788-31.901c0.015-0.251,0.019-0.502,0.014-0.754l-1.795-88.199C268.813,192.97,262.582,186.679,255.045,186.679    L255.045,186.679z M230.092,217.325c1.911,0,3.454,1.659,3.493,3.761l1.775,67.933l-1.775,32.725v-0.02    c-0.039,2.083-1.583,3.742-3.493,3.742c-1.949,0-3.474-1.659-3.512-3.723l-1.563-32.725l1.563-67.933    C226.619,218.984,228.144,217.325,230.092,217.325 M230.092,207.448c-7.369,0-13.249,5.911-13.388,13.457l-1.562,67.886    c-0.005,0.233-0.002,0.466,0.009,0.699l1.558,32.62c0.231,7.435,6.076,13.232,13.383,13.232c7.264,0,13.082-5.755,13.36-13.154    l1.771-32.635c0.015-0.265,0.018-0.528,0.011-0.793l-1.774-67.902C243.298,213.335,237.434,207.448,230.092,207.448    L230.092,207.448z M289.337,187.377c33.598,0,61.136,27.673,64.049,62.963c4.324-1.948,9.11-3.028,14.106-3.028    c20.129,0,36.455,17.529,36.455,39.16c0,21.619-16.326,39.128-36.455,39.128c-0.654,0-100.965-0.02-101.063-0.037    c-2.181-0.232-3.897-2.238-3.937-4.647V196.672c0.039-2.295,0.753-3.471,3.512-4.609    C273.069,189.132,281.096,187.377,289.337,187.377 M289.337,177.5c-9.162,0-18.539,1.881-27.117,5.439    c-6.256,2.581-9.493,7.147-9.602,13.564c-0.001,0.056-0.001,0.112-0.001,0.168v124.243c0,0.054,0,0.106,0.001,0.16    c0.12,7.395,5.608,13.546,12.766,14.309l0.001-0.012c1.098,0.073,4.064,0.075,16.781,0.081c9.429,0.004,21.998,0.008,34.584,0.012    c25.174,0.007,50.416,0.012,50.743,0.012c25.548,0,46.332-21.983,46.332-49.005c0-27.039-20.784-49.037-46.332-49.037    c-2.043,0-4.065,0.138-6.063,0.412c-3.403-14.963-10.866-28.605-21.614-39.242C326.063,184.995,308.137,177.5,289.337,177.5    L289.337,177.5z M364.039,478.061H147.415c-62.448,0-113.253-50.818-113.253-113.283V148.179    c0-62.454,50.805-113.263,113.253-113.263h216.624c62.459,0,113.272,50.81,113.272,113.263v216.599    C477.312,427.242,426.498,478.061,364.039,478.061z M147.415,44.818c-56.988,0-103.351,46.367-103.351,103.36v216.599    c0,57.004,46.363,103.381,103.351,103.381h216.624c56.998,0,103.37-46.377,103.37-103.381V148.179    c0-56.993-46.372-103.36-103.37-103.36H147.415z" style="fill:#BF4700;"/><path d="M235.361,289.019l-1.775-67.933c-0.039-2.102-1.583-3.761-3.493-3.761    c-1.949,0-3.474,1.659-3.512,3.761l-1.563,67.933l1.563,32.725c0.039,2.063,1.563,3.723,3.512,3.723    c1.911,0,3.454-1.659,3.493-3.742v0.02L235.361,289.019z" style="fill:#FFFFFF;"/><path d="M367.492,247.312c-4.996,0-9.782,1.081-14.106,3.028c-2.913-35.29-30.451-62.963-64.049-62.963    c-8.241,0-16.268,1.755-23.332,4.686c-2.759,1.138-3.473,2.314-3.512,4.609v124.243c0.039,2.409,1.756,4.415,3.937,4.647    c0.098,0.018,100.408,0.037,101.063,0.037c20.129,0,36.455-17.509,36.455-39.128C403.947,264.841,387.621,247.312,367.492,247.312    z" style="fill:#FFFFFF;"/><path d="M173.853,288.999l-2.624-52.583c-0.058-1.35-1.042-2.392-2.238-2.392    c-1.197,0-2.181,1.042-2.239,2.392l-2.316,52.583l2.316,34.017c0.059,1.331,1.042,2.392,2.239,2.392    c1.196,0,2.181-1.061,2.238-2.411v0.02L173.853,288.999z" style="fill:#FFFFFF;"/><path d="M161.85,288.999l-2.797-32.334c-0.078-1.215-0.927-2.121-1.988-2.121    c-1.062,0-1.93,0.945-1.988,2.141l-2.471,32.314l2.471,33.997c0.058,1.196,0.926,2.084,1.988,2.084    c1.061,0,1.91-0.888,1.988-2.084l0,0L161.85,288.999z" style="fill:#FFFFFF;"/><path d="M185.972,289.019l-2.45-64.616c-0.077-1.504-1.177-2.661-2.509-2.661    c-1.331,0-2.431,1.157-2.488,2.661l-2.162,64.616l2.162,33.785c0.058,1.466,1.157,2.643,2.488,2.643    c1.332,0,2.432-1.177,2.509-2.661v0.019L185.972,289.019z" style="fill:#FFFFFF;"/><path d="M121.846,318.233c0.618,0,1.139-0.521,1.216-1.291l3.319-27.963l-3.299-28.594    c-0.096-0.732-0.618-1.272-1.235-1.272c-0.636,0-1.158,0.54-1.234,1.272l-2.934,28.594l2.934,27.963    C120.688,317.693,121.209,318.233,121.846,318.233z" style="fill:#FFFFFF;"/><path d="M133.482,323.248c0.772,0,1.39-0.675,1.486-1.563l3.146-32.706l-3.146-33.916    c-0.096-0.887-0.714-1.562-1.486-1.562c-0.771,0-1.409,0.675-1.486,1.562c0,0.02-2.759,33.916-2.759,33.916l2.759,32.706    C132.074,322.573,132.711,323.248,133.482,323.248z" style="fill:#FFFFFF;"/><path d="M208.363,216.669c-0.059-1.813-1.351-3.22-2.991-3.22c-1.641,0-2.953,1.408-3.011,3.22    l-1.872,72.349l1.872,33.227c0.058,1.793,1.37,3.201,3.011,3.201c1.641,0,2.933-1.408,2.991-3.201l0,0l2.122-33.227    L208.363,216.669z" style="fill:#FFFFFF;"/><path d="M145.235,324.54c0.907,0,1.64-0.771,1.736-1.832l2.953-33.709l-2.953-34.841    c-0.097-1.061-0.829-1.851-1.736-1.851c-0.927,0-1.679,0.791-1.737,1.851l-2.624,34.841l2.624,33.709    C143.557,323.769,144.309,324.54,145.235,324.54z" style="fill:#FFFFFF;"/><path d="M198.173,289.019l-2.276-70.016c-0.058-1.64-1.274-2.932-2.741-2.932    c-1.505,0-2.702,1.292-2.759,2.932c0,0.019-2.027,70.016-2.027,70.016l2.027,33.438c0.058,1.64,1.254,2.911,2.759,2.911    c1.466,0,2.683-1.271,2.741-2.931v0.039L198.173,289.019z" style="fill:#FFFFFF;"/><path d="M222.856,289.019l-1.93-70.536c-0.038-1.929-1.467-3.452-3.261-3.452    c-1.775,0-3.204,1.522-3.242,3.452l-1.718,70.536l1.718,32.918c0.038,1.929,1.466,3.49,3.242,3.49c1.794,0,3.223-1.562,3.261-3.49    l0,0L222.856,289.019z" style="fill:#FFFFFF;"/><path d="M110.885,270.062c-0.618,0-1.1,0.521-1.197,1.254l-2.162,17.664l2.162,17.395    c0.097,0.733,0.579,1.234,1.197,1.234c0.598,0,1.081-0.501,1.177-1.234l2.566-17.395l-2.566-17.664    C111.966,270.583,111.483,270.062,110.885,270.062z" style="fill:#FFFFFF;"/><path d="M247.943,289.056l-1.583-80.891c-0.038-2.198-1.736-3.992-3.763-3.992    c-2.064,0-3.743,1.793-3.763,3.992l-1.428,80.854c0,0.076,1.428,32.513,1.428,32.513c0.02,2.179,1.698,4.012,3.763,4.012    c2.027,0,3.725-1.833,3.763-4.05v0.058L247.943,289.056z" style="fill:#FFFFFF;"/><path d="M255.045,196.556c-2.181,0-3.995,1.928-4.034,4.3l-1.64,88.199l1.64,32.013    c0.039,2.333,1.853,4.262,4.034,4.262c2.161,0,3.976-1.929,4.013-4.281v0.02l1.795-32.013l-1.795-88.199    C259.021,198.484,257.206,196.556,255.045,196.556z" style="fill:#FFFFFF;"/><path d="M235.361,289.019l-1.775-67.933c-0.039-2.102-1.583-3.761-3.493-3.761    c-1.949,0-3.474,1.659-3.512,3.761l-1.563,67.933l1.563,32.725c0.039,2.063,1.563,3.723,3.512,3.723    c1.911,0,3.454-1.659,3.493-3.742v0.02L235.361,289.019z" style="fill:#FFFFFF;"/></g></g><g id="Layer_1"/></svg>