<?xml version="1.0" ?><!DOCTYPE svg  PUBLIC '-//W3C//DTD SVG 1.1//EN'  'http://www.w3.org/Graphics/SVG/1.1/DTD/svg11.dtd'><svg height="512px" style="enable-background:new 0 0 512 512;" version="1.1" viewBox="0 0 512 512" width="512px" xml:space="preserve" xmlns="http://www.w3.org/2000/svg" xmlns:xlink="http://www.w3.org/1999/xlink"><g id="flicker__x2C_"><path d="M492.871,374.968c0,65.432-53.089,118.482-118.565,118.482H137.168   c-65.497,0-118.566-53.051-118.566-118.482V138.009c0-65.451,53.069-118.483,118.566-118.483h237.137   c65.477,0,118.565,53.032,118.565,118.483V374.968z" style="fill:#FF0087;"/><path d="M167.775,325.6c38.734,0,70.132-30.951,70.132-69.108c0-38.145-31.398-69.115-70.132-69.115   c-38.731,0-70.129,30.97-70.129,69.115C97.646,294.648,129.044,325.6,167.775,325.6z" style="fill:#FFFFFF;"/><path d="M343.718,187.377c-38.73,0-70.108,30.97-70.108,69.115c0,38.157,31.378,69.108,70.108,69.108   c38.731,0,70.109-30.951,70.109-69.108C413.827,218.347,382.449,187.377,343.718,187.377z" style="fill:#FFFFFF;"/><path d="M167.775,325.6c38.734,0,70.132-30.951,70.132-69.108c0-38.145-31.398-69.115-70.132-69.115   c-38.731,0-70.129,30.97-70.129,69.115C97.646,294.648,129.044,325.6,167.775,325.6z" style="fill:#FFFFFF;"/><path d="M343.718,187.377c-38.73,0-70.108,30.97-70.108,69.115c0,38.157,31.378,69.108,70.108,69.108   c38.731,0,70.109-30.951,70.109-69.108C413.827,218.347,382.449,187.377,343.718,187.377z" style="fill:#FFFFFF;"/><path d="M167.775,187.377c38.734,0,70.132,30.97,70.132,69.115c0,38.157-31.398,69.108-70.132,69.108   c-38.731,0-70.129-30.951-70.129-69.108C97.646,218.347,129.044,187.377,167.775,187.377 M167.775,177.5   c-44.115,0-80.006,35.436-80.006,78.992c0,43.552,35.891,78.985,80.006,78.985c44.117,0,80.009-35.433,80.009-78.985   C247.785,212.936,211.893,177.5,167.775,177.5L167.775,177.5z" style="fill:#800044;"/><path d="M343.718,187.377c38.731,0,70.109,30.97,70.109,69.115c0,38.157-31.378,69.108-70.109,69.108   c-38.73,0-70.108-30.951-70.108-69.108C273.609,218.347,304.987,187.377,343.718,187.377 M343.718,177.5   c-44.104,0-79.985,35.436-79.985,78.992c0,43.552,35.881,78.985,79.985,78.985s79.986-35.433,79.986-78.985   C423.704,212.936,387.822,177.5,343.718,177.5L343.718,177.5z" style="fill:#800044;"/><path d="M364.039,478.061H147.415c-62.448,0-113.253-50.818-113.253-113.283V148.179   c0-62.454,50.805-113.263,113.253-113.263h216.624c62.459,0,113.272,50.81,113.272,113.263v216.599   C477.312,427.242,426.498,478.061,364.039,478.061z M147.415,44.818c-56.988,0-103.351,46.367-103.351,103.36v216.599   c0,57.004,46.363,103.381,103.351,103.381h216.624c56.998,0,103.37-46.377,103.37-103.381V148.179   c0-56.993-46.372-103.36-103.37-103.36H147.415z" style="fill:#800044;"/></g><g id="Layer_1"/></svg>