<?xml version="1.0" ?><!DOCTYPE svg  PUBLIC '-//W3C//DTD SVG 1.1//EN'  'http://www.w3.org/Graphics/SVG/1.1/DTD/svg11.dtd'><svg height="512px" style="enable-background:new 0 0 512 512;" version="1.1" viewBox="0 0 512 512" width="512px" xml:space="preserve" xmlns="http://www.w3.org/2000/svg" xmlns:xlink="http://www.w3.org/1999/xlink"><g id="digg__x2C_"><g><path d="M492.871,374.968c0,65.451-53.089,118.482-118.565,118.482H137.168    c-65.497,0-118.566-53.031-118.566-118.482V138.009c0-65.432,53.069-118.483,118.566-118.483h237.137    c65.477,0,118.565,53.051,118.565,118.483V374.968z" style="fill:#476BA1;"/><path d="M181.109,167.63h-28.985v41.345h-44.598v94.641h73.583V167.63z M152.124,278.18h-15.109v-43.017    h15.109V278.18z" style="fill:#FFFFFF;"/><path d="M315.08,345.347V209.361h-73.583v94.641h44.636v14.791h-45.138v26.554h61.291H315.08z     M286.134,277.814h-15.13v-43.037h15.13V277.814z" style="fill:#FFFFFF;"/><path d="M330.383,304.002h44.579v14.791h-45.1v26.554h61.29h12.795V209.361h-73.564V304.002z     M359.891,234.778h15.071v43.037h-15.071V234.778z" style="fill:#FFFFFF;"/><rect height="95.219" style="fill:#FFFFFF;" width="30.008" x="196.051" y="208.783"/><rect height="25.822" style="fill:#FFFFFF;" width="30.008" x="196.051" y="169.307"/><path d="M181.109,167.63h-28.985v41.345h-44.598v94.641h73.583V167.63z M152.124,278.18h-15.109v-43.017    h15.109V278.18z" style="fill:#FFFFFF;"/><path d="M315.08,345.347V209.361h-73.583v94.641h44.636v14.791h-45.138v26.554h61.291H315.08z     M286.134,277.814h-15.13v-43.037h15.13V277.814z" style="fill:#FFFFFF;"/><path d="M330.383,304.002h44.579v14.791h-45.1v26.554h61.29h12.795V209.361h-73.564V304.002z     M359.891,234.778h15.071v43.037h-15.071V234.778z" style="fill:#FFFFFF;"/><rect height="95.219" style="fill:#FFFFFF;" width="30.008" x="196.051" y="208.783"/><rect height="25.822" style="fill:#FFFFFF;" width="30.008" x="196.051" y="169.307"/><path d="M181.109,167.63v135.986h-73.583v-94.641h44.598V167.63H181.109 M137.015,278.18h15.109v-43.017    h-15.109V278.18 M181.109,157.753h-28.985c-5.455,0-9.877,4.422-9.877,9.877v31.468h-34.721c-5.455,0-9.877,4.422-9.877,9.877    v94.641c0,5.455,4.422,9.877,9.877,9.877h73.583c5.455,0,9.877-4.422,9.877-9.877V167.63    C190.986,162.175,186.564,157.753,181.109,157.753L181.109,157.753z M315.08,209.361v135.986h-12.794h-61.291v-26.554h45.138    v-14.791h-44.636v-94.641H315.08 M271.004,277.814h15.13v-43.037h-15.13V277.814 M315.08,199.484h-73.583    c-5.455,0-9.877,4.422-9.877,9.877v94.641c0,2.825,1.186,5.373,3.087,7.174c-2.192,1.812-3.589,4.551-3.589,7.617v26.554    c0,5.455,4.422,9.877,9.877,9.877h61.291h12.794c5.455,0,9.877-4.422,9.877-9.877V209.361    C324.957,203.906,320.535,199.484,315.08,199.484L315.08,199.484z M403.947,209.361v135.986h-12.795h-61.29v-26.554h45.1v-14.791    h-44.579v-94.641H403.947 M359.891,277.814h15.071v-43.037h-15.071V277.814 M403.947,199.484h-73.564    c-5.455,0-9.877,4.422-9.877,9.877v94.641c0,2.82,1.183,5.365,3.079,7.165c-2.198,1.812-3.6,4.556-3.6,7.626v26.554    c0,5.455,4.422,9.877,9.877,9.877h61.29h12.795c5.455,0,9.877-4.422,9.877-9.877V209.361    C413.824,203.906,409.402,199.484,403.947,199.484L403.947,199.484z M226.06,208.783v95.219h-30.008v-95.219H226.06     M226.06,198.906h-30.008c-5.455,0-9.877,4.422-9.877,9.877v95.219c0,5.455,4.422,9.877,9.877,9.877h30.008    c5.455,0,9.877-4.422,9.877-9.877v-95.219C235.937,203.328,231.515,198.906,226.06,198.906L226.06,198.906z M226.06,169.307    v25.822h-30.008v-25.822H226.06 M226.06,159.43h-30.008c-5.455,0-9.877,4.422-9.877,9.877v25.822c0,5.455,4.422,9.877,9.877,9.877    h30.008c5.455,0,9.877-4.422,9.877-9.877v-25.822C235.937,163.852,231.515,159.43,226.06,159.43L226.06,159.43z M364.039,478.061    H147.415c-62.448,0-113.253-50.818-113.253-113.283V148.179c0-62.454,50.805-113.263,113.253-113.263h216.624    c62.459,0,113.272,50.81,113.272,113.263v216.599C477.312,427.242,426.498,478.061,364.039,478.061z M147.415,44.818    c-56.988,0-103.351,46.367-103.351,103.36v216.599c0,57.004,46.363,103.381,103.351,103.381h216.624    c56.998,0,103.37-46.377,103.37-103.381V148.179c0-56.993-46.372-103.36-103.37-103.36H147.415z" style="fill:#243651;"/></g></g><g id="Layer_1"/></svg>