<?xml version="1.0" ?><!DOCTYPE svg  PUBLIC '-//W3C//DTD SVG 1.1//EN'  'http://www.w3.org/Graphics/SVG/1.1/DTD/svg11.dtd'><svg height="512px" style="enable-background:new 0 0 512 512;" version="1.1" viewBox="0 0 512 512" width="512px" xml:space="preserve" xmlns="http://www.w3.org/2000/svg" xmlns:xlink="http://www.w3.org/1999/xlink"><g id="yelp__x2C_"><g><path d="M492.871,374.948c0,65.451-53.089,118.502-118.565,118.502H137.168    c-65.497,0-118.566-53.051-118.566-118.502V138.009c0-65.451,53.069-118.483,118.566-118.483h237.137    c65.477,0,118.565,53.032,118.565,118.483V374.948z" style="fill:#E93921;"/><path d="M337.577,382.74c5.76,0,11.462-4.396,11.462-4.396l31.861-42.522c0,0,3.224-5.379,3.28-10.085    c0.127-6.673-10.662-8.523-10.662-8.523l-75.454-22.62c0,0-7.401-1.813-12.313,2.814c-5.354,5.054-0.83,14.213-0.83,14.213    l40.323,62.828C325.245,374.448,331.855,382.74,337.577,382.74z" style="fill:#FFFFFF;"/><path d="M296.434,270.082l75.291-20.538c0,0,10.246-3.896,11.714-9.083    c1.428-5.187-1.698-11.474-1.698-11.474l-35.98-39.552c0,0-3.099-5.014-9.582-5.516c-7.131-0.579-11.512,7.502-11.512,7.502    l-42.532,62.48c0,0-3.763,6.209-0.203,11.861C285.791,271.856,296.434,270.082,296.434,270.082z" style="fill:#FFFFFF;"/><path d="M246.356,241.386c8.858-2.043,10.286-14.058,10.286-14.058l-0.617-100.047    c0,0-1.322-12.342-7.275-15.698c-9.311-5.284-12.061-2.526-14.743-2.14l-62.516,21.657c0,0-6.107,1.909-9.292,6.672    c-4.544,6.749,4.631,16.643,4.631,16.643l64.966,82.671C231.796,237.086,238.194,243.257,246.356,241.386z" style="fill:#FFFFFF;"/><path d="M139.041,236.681c-3.695,2.044-6.986,5.747-7.313,9.006l-4.352,50.274c0,0-0.666,8.717,1.756,12.67    c3.426,5.631,14.686,1.717,14.686,1.717l78.437-16.18c3.03-1.929,8.385-2.083,8.674-12.284c0.221-7.732-9.92-12.36-9.92-12.36    l-67.175-31.685C153.833,237.838,143.875,234,139.041,236.681z" style="fill:#FFFFFF;"/><path d="M186.099,388.525l52.722,15.543c0,0,6.397,1.234,11.251-0.077    c6.86-1.851,5.577-11.898,5.577-11.898l1.206-73.068c0,0-0.271-7.037-6.427-10.026c-6.735-3.221-14.792,3.47-14.792,3.47    l-52.49,53.958c0,0-6.571,8.273-4.902,13.325C179.818,384.514,182.404,386.867,186.099,388.525z" style="fill:#FFFFFF;"/><path d="M337.577,382.74c5.76,0,11.462-4.396,11.462-4.396l31.861-42.522c0,0,3.224-5.379,3.28-10.085    c0.127-6.673-10.662-8.523-10.662-8.523l-75.454-22.62c0,0-7.401-1.813-12.313,2.814c-5.354,5.054-0.83,14.213-0.83,14.213    l40.323,62.828C325.245,374.448,331.855,382.74,337.577,382.74z" style="fill:#FFFFFF;"/><path d="M296.434,270.082l75.291-20.538c0,0,10.246-3.896,11.714-9.083    c1.428-5.187-1.698-11.474-1.698-11.474l-35.98-39.552c0,0-3.099-5.014-9.582-5.516c-7.131-0.579-11.512,7.502-11.512,7.502    l-42.532,62.48c0,0-3.763,6.209-0.203,11.861C285.791,271.856,296.434,270.082,296.434,270.082z" style="fill:#FFFFFF;"/><path d="M246.356,241.386c8.858-2.043,10.286-14.058,10.286-14.058l-0.617-100.047    c0,0-1.322-12.342-7.275-15.698c-9.311-5.284-12.061-2.526-14.743-2.14l-62.516,21.657c0,0-6.107,1.909-9.292,6.672    c-4.544,6.749,4.631,16.643,4.631,16.643l64.966,82.671C231.796,237.086,238.194,243.257,246.356,241.386z" style="fill:#FFFFFF;"/><path d="M139.041,236.681c-3.695,2.044-6.986,5.747-7.313,9.006l-4.352,50.274c0,0-0.666,8.717,1.756,12.67    c3.426,5.631,14.686,1.717,14.686,1.717l78.437-16.18c3.03-1.929,8.385-2.083,8.674-12.284c0.221-7.732-9.92-12.36-9.92-12.36    l-67.175-31.685C153.833,237.838,143.875,234,139.041,236.681z" style="fill:#FFFFFF;"/><path d="M186.099,388.525l52.722,15.543c0,0,6.397,1.234,11.251-0.077    c6.86-1.851,5.577-11.898,5.577-11.898l1.206-73.068c0,0-0.271-7.037-6.427-10.026c-6.735-3.221-14.792,3.47-14.792,3.47    l-52.49,53.958c0,0-6.571,8.273-4.902,13.325C179.818,384.514,182.404,386.867,186.099,388.525z" style="fill:#FFFFFF;"/><path d="M294.617,294.242c2.019,0,3.447,0.351,3.447,0.351l75.454,22.62c0,0,10.789,1.851,10.662,8.523    c-0.057,4.706-3.28,10.085-3.28,10.085l-31.861,42.522c0,0-5.702,4.396-11.462,4.396c-5.722,0-12.332-8.292-12.332-8.292    l-40.323-62.828c0,0-4.524-9.159,0.83-14.213C288.506,294.813,292.041,294.242,294.617,294.242 M294.617,284.365    c-6.168,0-11.575,2.024-15.639,5.854c-8.424,7.951-5.794,19.942-2.912,25.775c0.163,0.33,0.345,0.651,0.543,0.961l40.323,62.828    c0.183,0.284,0.379,0.559,0.589,0.822c2.247,2.817,10.332,12.012,20.056,12.012c8.686,0,16.096-5.374,17.493-6.451    c0.707-0.546,1.337-1.185,1.873-1.899l31.861-42.522c0.204-0.272,0.394-0.554,0.567-0.846c0.767-1.278,4.588-8.002,4.685-15.01    c0.172-10.214-8.917-16.488-18.22-18.292L300.9,285.132c-0.16-0.048-0.322-0.093-0.485-0.133    C299.808,284.851,297.596,284.365,294.617,284.365L294.617,284.365z" style="fill:#751D11;"/><path d="M335.448,183.89c0.239,0,0.483,0.01,0.729,0.03c6.483,0.501,9.582,5.516,9.582,5.516l35.98,39.552    c0,0,3.126,6.287,1.698,11.474c-1.468,5.188-11.714,9.083-11.714,9.083l-75.291,20.538c0,0-1.441,0.24-3.456,0.24    c-3.459,0-8.607-0.709-11.047-4.56c-3.56-5.651,0.203-11.861,0.203-11.861l42.532-62.48    C324.666,191.421,328.749,183.89,335.448,183.89 M335.448,174.013c-11.171,0-17.59,9.517-19.152,12.152l-42.327,62.179    c-0.098,0.144-0.191,0.291-0.282,0.439c-0.709,1.17-6.734,11.732-0.113,22.243c3.752,5.923,10.639,9.173,19.404,9.173    c2.695,0,4.705-0.313,5.08-0.375c0.329-0.055,0.654-0.126,0.976-0.213l75.291-20.538c0.308-0.085,0.612-0.184,0.91-0.297    c4.477-1.702,15.163-6.631,17.708-15.626c0.007-0.022,0.013-0.045,0.019-0.068c2.313-8.4-1.574-16.878-2.377-18.493    c-0.406-0.817-0.924-1.574-1.537-2.249l-35.591-39.123c-1.866-2.505-7.216-8.426-16.517-9.146    C336.47,174.034,335.955,174.013,335.448,174.013L335.448,174.013z" style="fill:#751D11;"/><path d="M239.24,108.382c2.157,0,5.096,0.698,9.509,3.202c5.954,3.356,7.275,15.698,7.275,15.698    l0.617,100.047c0,0-1.428,12.014-10.286,14.058c-1.075,0.246-2.118,0.353-3.121,0.353c-6.615,0-11.439-4.653-11.439-4.653    l-64.966-82.671c0,0-9.176-9.894-4.631-16.643c3.185-4.763,9.292-6.672,9.292-6.672l62.516-21.657    C235.417,109.241,236.846,108.382,239.24,108.382 M239.24,98.505c-3.026,0-5.252,0.689-6.582,1.101    c-0.121,0.038-0.236,0.075-0.35,0.108c-0.521,0.091-1.035,0.224-1.535,0.397l-62.408,21.619    c-1.931,0.628-9.665,3.503-14.378,10.553c-2.267,3.367-5.3,10.598,0.061,20.901c1.92,3.691,4.313,6.563,5.209,7.581l64.772,82.425    c0.28,0.356,0.584,0.692,0.91,1.007c0.788,0.759,7.992,7.42,18.296,7.42c1.79,0,3.582-0.203,5.327-0.603    c12.349-2.849,17.053-15.496,17.887-22.52c0.049-0.407,0.071-0.816,0.069-1.227l-0.617-100.047    c-0.002-0.331-0.021-0.662-0.056-0.991c-0.438-4.081-2.612-17.819-12.247-23.25C248.227,99.931,243.656,98.505,239.24,98.505    L239.24,98.505z" style="fill:#751D11;"/><path d="M143.563,235.73c4.8,0,10.27,2.108,10.27,2.108l67.175,31.685c0,0,10.141,4.628,9.92,12.36    c-0.289,10.201-5.644,10.355-8.674,12.284l-78.437,16.18c0,0-3.809,1.324-7.67,1.324c-2.777,0-5.582-0.686-7.015-3.041    c-2.422-3.953-1.756-12.67-1.756-12.67l4.352-50.274c0.328-3.259,3.618-6.961,7.313-9.006    C140.292,235.987,141.887,235.73,143.563,235.73 M143.563,225.853c-3.558,0-6.691,0.737-9.312,2.19    c-5.211,2.883-11.58,8.979-12.352,16.656c-0.004,0.045-0.009,0.091-0.013,0.136l-4.352,50.274    c-0.003,0.033-0.005,0.066-0.008,0.099c-0.273,3.579-0.511,12.555,3.182,18.583c1.752,2.881,6.112,7.758,15.437,7.758    c4.424,0,8.487-1.102,10.204-1.639l77.898-16.068c1.152-0.238,2.252-0.68,3.249-1.304c0.147-0.079,0.514-0.248,0.785-0.373    c3.624-1.67,12.109-5.582,12.518-20.002c0.392-13.688-13.654-20.682-15.618-21.591l-67.137-31.667    c-0.217-0.103-0.438-0.197-0.661-0.283C156.185,228.16,149.88,225.853,143.563,225.853L143.563,225.853z" style="fill:#751D11;"/><path d="M246.427,308.121c1.337,0,2.694,0.252,4,0.877c6.156,2.989,6.427,10.026,6.427,10.026    l-1.206,73.068c0,0,1.283,10.048-5.577,11.898c-1.684,0.455-3.553,0.604-5.277,0.604c-3.245,0-5.974-0.526-5.974-0.526    l-52.722-15.543c-3.695-1.658-6.281-4.012-7.854-8.774c-1.669-5.052,4.902-13.325,4.902-13.325l52.49-53.958    C235.636,312.468,240.87,308.121,246.427,308.121 M246.427,298.244c-8.684,0-15.769,5.519-17.101,6.625    c-0.269,0.224-0.526,0.461-0.77,0.712l-52.49,53.958c-0.23,0.236-0.449,0.485-0.655,0.744c-2.973,3.743-9.563,13.436-6.546,22.566    c2.321,7.023,6.512,11.69,13.189,14.687c0.406,0.183,0.824,0.337,1.251,0.463l52.722,15.543c0.304,0.09,0.611,0.165,0.922,0.225    c0.374,0.072,3.773,0.705,7.845,0.705c2.89,0,5.532-0.318,7.854-0.945c10.118-2.729,13.729-13.097,12.886-21.893l1.196-72.446    c0.003-0.181,0.001-0.361-0.006-0.543c-0.052-1.325-0.82-13.111-11.982-18.531c-0.018-0.009-0.036-0.018-0.053-0.025    C252.131,298.864,249.352,298.244,246.427,298.244L246.427,298.244z" style="fill:#751D11;"/><path d="M364.039,478.061H147.415c-62.448,0-113.253-50.818-113.253-113.283V148.179    c0-62.454,50.805-113.263,113.253-113.263h216.624c62.459,0,113.272,50.81,113.272,113.263v216.599    C477.312,427.242,426.498,478.061,364.039,478.061z M147.415,44.818c-56.988,0-103.351,46.367-103.351,103.36v216.599    c0,57.004,46.363,103.381,103.351,103.381h216.624c56.998,0,103.37-46.377,103.37-103.381V148.179    c0-56.993-46.372-103.36-103.37-103.36H147.415z" style="fill:#751D11;"/></g></g><g id="Layer_1"/></svg>